<svg xmlns="http://www.w3.org/2000/svg" width="19.783" height="24.265" viewBox="0 0 19.783 24.265">
  <g id="apple-logo" transform="translate(-2.104)">
    <g id="Group_148" data-name="Group 148" transform="translate(2.104)">
      <path id="Path_184" data-name="Path 184" d="M16.059,0h.173a5.2,5.2,0,0,1-1.308,3.916,4.056,4.056,0,0,1-3.571,1.676A5.04,5.04,0,0,1,12.685,1.8,5.753,5.753,0,0,1,16.059,0Z" transform="translate(-1.499)"/>
      <path id="Path_185" data-name="Path 185" d="M21.887,17.452V17.5a14.118,14.118,0,0,1-2.02,3.895c-.77,1.06-1.714,2.487-3.4,2.487-1.457,0-2.424-.937-3.917-.962-1.579-.026-2.448.783-3.891.987H8.166a4.4,4.4,0,0,1-2.539-1.75A15.329,15.329,0,0,1,2.1,13.338V12.252a7.111,7.111,0,0,1,3.1-5.837A5.244,5.244,0,0,1,8.729,5.6a8.856,8.856,0,0,1,1.725.494,4.763,4.763,0,0,0,1.724.517,4.138,4.138,0,0,0,1.209-.37,7.441,7.441,0,0,1,3.891-.69,5.4,5.4,0,0,1,3.967,2.365,5.091,5.091,0,0,0-2.586,5.051A5.214,5.214,0,0,0,21.887,17.452Z" transform="translate(-2.104 0.36)"/>
    </g>
  </g>
</svg>
