<svg id="facebook" xmlns="http://www.w3.org/2000/svg" width="24.78" height="24.78" viewBox="0 0 24.78 24.78">
  <path id="Path_182" data-name="Path 182" d="M24.78,12.39A12.393,12.393,0,0,1,14.326,24.629V15.971h2.887l.549-3.581H14.326V10.066a1.791,1.791,0,0,1,2.019-1.935h1.562V5.082a19.057,19.057,0,0,0-2.774-.242c-2.83,0-4.68,1.715-4.68,4.82v2.73H7.308v3.581h3.146v8.658A12.391,12.391,0,1,1,24.78,12.39Z" fill="#1877f2"/>
  <path id="Path_183" data-name="Path 183" d="M160.9,111.131l.549-3.581h-3.436v-2.324a1.791,1.791,0,0,1,2.019-1.935H161.6v-3.049a19.052,19.052,0,0,0-2.773-.242c-2.83,0-4.68,1.715-4.68,4.82v2.73H151v3.581h3.146v8.658a12.521,12.521,0,0,0,3.872,0v-8.658Z" transform="translate(-143.692 -95.16)" fill="#fff"/>
</svg>
