<svg id="google" xmlns="http://www.w3.org/2000/svg" width="24.768" height="24.768" viewBox="0 0 24.768 24.768">
  <path id="Path_176" data-name="Path 176" d="M278.041,211.479h-10.1a.808.808,0,0,0-.808.808v3.227a.808.808,0,0,0,.808.808h5.689a7.6,7.6,0,0,1-3.269,3.831l2.426,4.2a12.143,12.143,0,0,0,6.192-10.62,8.184,8.184,0,0,0-.139-1.586A.811.811,0,0,0,278.041,211.479Z" transform="translate(-254.209 -201.249)" fill="#167ee6"/>
  <path id="Path_177" data-name="Path 177" d="M45.13,337.619a7.536,7.536,0,0,1-6.52-3.772l-4.2,2.42a12.374,12.374,0,0,0,16.911,4.539V340.8L48.9,336.6A7.482,7.482,0,0,1,45.13,337.619Z" transform="translate(-32.746 -317.697)" fill="#12b347"/>
  <path id="Path_178" data-name="Path 178" d="M262.192,394.984v-.006l-2.426-4.2A7.482,7.482,0,0,1,256,391.8v4.846A12.363,12.363,0,0,0,262.192,394.984Z" transform="translate(-243.616 -371.875)" fill="#0f993e"/>
  <path id="Path_179" data-name="Path 179" d="M4.846,134.305a7.482,7.482,0,0,1,1.018-3.766l-4.2-2.42a12.327,12.327,0,0,0,0,12.372l4.2-2.42A7.482,7.482,0,0,1,4.846,134.305Z" transform="translate(0 -121.921)" fill="#ffd500"/>
  <path id="Path_180" data-name="Path 180" d="M45.13,4.846a7.5,7.5,0,0,1,4.786,1.718A.8.8,0,0,0,51,6.515l2.287-2.287a.814.814,0,0,0-.047-1.19A12.357,12.357,0,0,0,34.411,6.2l4.2,2.42A7.537,7.537,0,0,1,45.13,4.846Z" transform="translate(-32.746)" fill="#ff4b26"/>
  <path id="Path_181" data-name="Path 181" d="M260.786,6.564a.8.8,0,0,0,1.083-.049l2.287-2.287a.814.814,0,0,0-.047-1.19A12.346,12.346,0,0,0,256,0V4.846A7.5,7.5,0,0,1,260.786,6.564Z" transform="translate(-243.616)" fill="#d93f21"/>
</svg>
