<svg xmlns="http://www.w3.org/2000/svg" width="28.169" height="28.15" viewBox="0 0 28.169 28.15">
  <g id="_1f44b" data-name="1f44b" transform="translate(-5.588 -5.62)">
    <g id="Group_2" data-name="Group 2" transform="translate(7.814 5.823)">
      <path id="Path_18" data-name="Path 18" d="M15.485,20.115c-.673-.967-.943-1.878-.285-2.43.557-.468,1.377-.557,2.389.612,0,0,3.026,3.515,4.067,4.492a.521.521,0,0,0,.8-.024c.227-.236.145-.441-.048-.723,0,0-4.265-6.341-4.824-7.115-.933-1.295-.574-2.131-.142-2.529.6-.557,1.656-.668,2.638.678l5.164,6.912a.457.457,0,0,0,.6.06L25.91,20a.454.454,0,0,0,.13-.6c-.9-1.574-4.5-7.848-5.029-8.991-.608-1.319-.347-1.989.3-2.377.764-.461,1.483-.427,2.341.849.931,1.389,4.545,7.236,5.463,8.808a.455.455,0,0,0,.591.178s.007,0,.01,0a.486.486,0,0,0,.3-.583c-.5-1.654-2.963-6.8-3.479-7.988-.706-1.618-.362-2.168.369-2.539.767-.388,1.565-.082,2.107,1,.366.733,6.8,12.443,6.8,12.443a11.207,11.207,0,0,1,.723-4.224c.685-2.259,2.341-3.433,3.542-2.905a1.1,1.1,0,0,1,.67,1.242,46.82,46.82,0,0,0-.82,5.316c-.26,4.634,1.14,9.974-4.079,13.331a8.633,8.633,0,0,1-9.712.123C23.138,30.982,16.035,20.906,15.485,20.115Z" transform="translate(-14.822 -6.561)" fill="#ffca28"/>
      <path id="Path_19" data-name="Path 19" d="M92.158,41.676a23.046,23.046,0,0,0-.48,5.046c.058,3.74.039,6.975-3.711,9.931a11.573,11.573,0,0,1-3.585,1.714c-.54.147-.335.321,0,.282a9.379,9.379,0,0,0,4-1.5c5.217-3.356,3.935-8.66,4.2-13.295.111-1.977.714-5.087.7-5.355A9.908,9.908,0,0,0,92.158,41.676Z" transform="translate(-67.359 -30.752)" fill="#eda600"/>
      <path id="Path_20" data-name="Path 20" d="M50.991,21.168a.993.993,0,0,1-.728-.492c-1.063-1.478-4.4-7.06-5.357-8.429-1.095-1.562-2.114-.964-2.346-.839a1.766,1.766,0,0,1,1.3.716c.945,1.4,4.528,7.679,5.659,9.027A.922.922,0,0,0,50.991,21.168Z" transform="translate(-35.872 -10.051)" fill="#eda600"/>
      <path id="Path_21" data-name="Path 21" d="M18.635,51.662c.328.352,3.207,3.768,4.268,4.721a1.014,1.014,0,0,0,1.591-.224,1.183,1.183,0,0,1-.793-.3,58.451,58.451,0,0,1-4.441-4.576,1.37,1.37,0,0,0-1.919-.251S17.858,50.833,18.635,51.662Z" transform="translate(-16.733 -40.07)" fill="#eda600"/>
      <path id="Path_22" data-name="Path 22" d="M35.363,36.864s-.309.224-.875-.439c-.412-.485-5.145-6.259-5.145-6.259-1.186-1.449-2.119-1.017-2.312-.907a1.8,1.8,0,0,1,1.292.772c.318.366,5.369,6.806,5.572,7.026A.815.815,0,0,0,35.363,36.864Z" transform="translate(-24.087 -23.651)" fill="#eda600"/>
      <path id="Path_23" data-name="Path 23" d="M74.191,18.847S67.92,8.332,67.52,7.616c-.89-1.589-1.924-1.1-2.1-1.022,0,0,.576-.164,1.254.989.362.612,4.969,8.9,6.44,11.544a1.769,1.769,0,0,1-.265,1.553c-1.331,1.492-3.028,3.016-2.529,6.794a6.621,6.621,0,0,0,.743,2.3c.333.547.716.34.547-.07a7,7,0,0,1-.33-1.21,6.552,6.552,0,0,1,1.813-6.307A3.732,3.732,0,0,0,74.191,18.847Z" transform="translate(-53.221 -6.462)" fill="#eda600"/>
    </g>
    <g id="Group_3" data-name="Group 3" transform="translate(25.309 5.62)">
      <path id="Path_24" data-name="Path 24" d="M91.269,11.729a10.39,10.39,0,0,0-1.531-3.224,9.106,9.106,0,0,0-2.182-2.172.437.437,0,0,1-.125-.53.365.365,0,0,1,.461-.157,5.924,5.924,0,0,1,2.616,2.2,8.6,8.6,0,0,1,1.473,3.641A.415.415,0,0,1,91.7,12,.335.335,0,0,1,91.269,11.729Z" transform="translate(-87.386 -5.62)" fill="#b0bec5"/>
    </g>
    <g id="Group_4" data-name="Group 4" transform="translate(23.67 6.895)">
      <path id="Path_25" data-name="Path 25" d="M84.469,17.018a10.389,10.389,0,0,0-1.531-3.224,9.106,9.106,0,0,0-2.182-2.172.437.437,0,0,1-.125-.53.362.362,0,0,1,.461-.157,5.924,5.924,0,0,1,2.616,2.2,8.6,8.6,0,0,1,1.473,3.641.415.415,0,0,1-.28.511A.335.335,0,0,1,84.469,17.018Z" transform="translate(-80.586 -10.907)" fill="#b0bec5"/>
    </g>
    <g id="Group_5" data-name="Group 5" transform="translate(5.588 22.681)">
      <path id="Path_26" data-name="Path 26" d="M6.3,76.641a10.445,10.445,0,0,0,1.741,3.115,9.184,9.184,0,0,0,2.319,2.025.436.436,0,0,1,.159.521.366.366,0,0,1-.451.188,5.919,5.919,0,0,1-2.756-2.023,8.617,8.617,0,0,1-1.712-3.535.413.413,0,0,1,.246-.528A.338.338,0,0,1,6.3,76.641Z" transform="translate(-5.588 -76.381)" fill="#b0bec5"/>
    </g>
    <g id="Group_6" data-name="Group 6" transform="translate(7.138 21.298)">
      <path id="Path_27" data-name="Path 27" d="M12.734,70.908a10.445,10.445,0,0,0,1.741,3.115,9.183,9.183,0,0,0,2.319,2.025.436.436,0,0,1,.159.521.366.366,0,0,1-.451.188,5.919,5.919,0,0,1-2.756-2.023A8.617,8.617,0,0,1,12.035,71.2a.413.413,0,0,1,.246-.528A.336.336,0,0,1,12.734,70.908Z" transform="translate(-12.018 -70.647)" fill="#b0bec5"/>
    </g>
  </g>
</svg>
