<svg xmlns="http://www.w3.org/2000/svg" width="83.589" height="86.287" viewBox="0 0 83.589 86.287">
  <g id="send-data" transform="translate(0)">
    <path id="Path_26" data-name="Path 26" d="M271.355,33.806a1.348,1.348,0,0,0,1.471-.167L302.5,8.939a1.348,1.348,0,0,0-.634-2.365L263.818.019a1.348,1.348,0,0,0-1.354,2.072l9.149,13.857-.994,16.575A1.348,1.348,0,0,0,271.355,33.806Zm-4.924-30.6,32.1,5.53L273.5,29.573l.777-12.943,12.084-3.238a1.348,1.348,0,0,0-.7-2.6l-12.083,3.238Z" transform="translate(-219.395 0.001)"/>
    <path id="Path_27" data-name="Path 27" d="M152,294.741v24.268a6.749,6.749,0,0,0,6.741,6.741H193.8a6.749,6.749,0,0,0,6.741-6.741V294.741A6.749,6.749,0,0,0,193.8,288H158.741A6.749,6.749,0,0,0,152,294.741Zm41.8,28.313H158.741a4.049,4.049,0,0,1-4.045-4.045V297.22l17.91,11.589a6.752,6.752,0,0,0,7.324,0l17.91-11.589v21.79A4.049,4.049,0,0,1,193.8,323.054Zm3.984-29.007-19.313,12.5a4.051,4.051,0,0,1-4.395,0l-19.313-12.5a4.051,4.051,0,0,1,3.984-3.351H193.8a4.05,4.05,0,0,1,3.984,3.351Z" transform="translate(-127.733 -239.464)"/>
    <path id="Path_28" data-name="Path 28" d="M203.051,116.75a1.348,1.348,0,0,0,.47-.084c1.187-.442,2.406-.876,3.623-1.289a1.348,1.348,0,1,0-.866-2.554c-1.243.421-2.487.864-3.7,1.316a1.348,1.348,0,0,0,.471,2.612Z" transform="translate(-169.058 -93.75)"/>
    <path id="Path_29" data-name="Path 29" d="M41.491,372.545a1.348,1.348,0,0,0,.067,1.906,18.981,18.981,0,0,0,3.341,2.486,1.348,1.348,0,1,0,1.362-2.327,16.268,16.268,0,0,1-2.865-2.132A1.348,1.348,0,0,0,41.491,372.545Z" transform="translate(-35.548 -309.403)"/>
    <path id="Path_30" data-name="Path 30" d="M254.1,99.668a1.347,1.347,0,0,0,1.674.913c1.667-.491,2.937-.827,3.708-1.023a1.348,1.348,0,1,0-.663-2.614c-.794.2-2.1.547-3.806,1.049A1.348,1.348,0,0,0,254.1,99.668Z" transform="translate(-212.579 -80.572)"/>
    <path id="Path_31" data-name="Path 31" d="M8.545,272.806a18.444,18.444,0,0,0-.533,4.118,1.348,1.348,0,0,0,1.327,1.369h.021a1.348,1.348,0,0,0,1.348-1.328,15.744,15.744,0,0,1,.455-3.515,1.348,1.348,0,0,0-2.618-.644Z" transform="translate(-8.012 -225.976)"/>
    <path id="Path_32" data-name="Path 32" d="M155.239,132.434c-1.226.521-2.435,1.06-3.593,1.6a1.348,1.348,0,1,0,1.145,2.441c1.128-.529,2.307-1.055,3.5-1.563a1.348,1.348,0,1,0-1.054-2.482Z" transform="translate(-126.794 -110.025)"/>
    <path id="Path_33" data-name="Path 33" d="M103.679,160.813a1.342,1.342,0,0,0,.706-.2c1.045-.643,2.154-1.286,3.3-1.91a1.348,1.348,0,1,0-1.291-2.367c-1.186.647-2.337,1.313-3.421,1.981a1.348,1.348,0,0,0,.708,2.5Z" transform="translate(-86.434 -129.851)"/>
    <path id="Path_34" data-name="Path 34" d="M89.224,398.544a1.348,1.348,0,0,0,1.021,1.61,18.978,18.978,0,0,0,4.138.455,1.348,1.348,0,1,0,0-2.7,16.282,16.282,0,0,1-3.549-.39A1.348,1.348,0,0,0,89.224,398.544Z" transform="translate(-75.51 -330.501)"/>
    <path id="Path_35" data-name="Path 35" d="M61.569,185.971c-1.1.828-2.14,1.681-3.09,2.534a1.348,1.348,0,1,0,1.8,2.006c.892-.8,1.871-1.6,2.909-2.385a1.348,1.348,0,1,0-1.621-2.155Z" transform="translate(-49.601 -154.403)"/>
    <path id="Path_36" data-name="Path 36" d="M27.322,223.7a1.348,1.348,0,0,0-1.9.206,26.162,26.162,0,0,0-2.31,3.362,1.348,1.348,0,1,0,2.339,1.341,23.5,23.5,0,0,1,2.073-3.014A1.348,1.348,0,0,0,27.322,223.7Z" transform="translate(-20.422 -185.757)"/>
    <path id="Path_37" data-name="Path 37" d="M15.027,326.948a1.348,1.348,0,1,0-2.582.776,18.8,18.8,0,0,0,1.635,3.832,1.348,1.348,0,0,0,2.347-1.327,16.1,16.1,0,0,1-1.4-3.282Z" transform="translate(-11.649 -271.049)"/>
  </g>
</svg>
