<svg xmlns="http://www.w3.org/2000/svg" width="21" height="21" viewBox="0 0 21 21">
  <g id="user" transform="translate(0.5 0.5)">
    <g id="Group_1" data-name="Group 1" transform="translate(0)">
      <path id="Path_15" data-name="Path 15" d="M17.071,12.929a9.962,9.962,0,0,0-3.8-2.384,5.781,5.781,0,1,0-6.542,0A10.016,10.016,0,0,0,0,20H1.562a8.437,8.437,0,0,1,16.875,0H20A9.935,9.935,0,0,0,17.071,12.929ZM10,10a4.219,4.219,0,1,1,4.219-4.219A4.224,4.224,0,0,1,10,10Z" transform="translate(0)" stroke="#000" stroke-width="1"/>
    </g>
  </g>
</svg>
