<svg xmlns="http://www.w3.org/2000/svg" width="37.777" height="36" viewBox="0 0 37.777 36">
  <g id="bid" transform="translate(-5.816 -7.048)">
    <path id="Path_86" data-name="Path 86" d="M43.017,43.048a1.8,1.8,0,0,0,1.331-3.014L30.707,24.9l4.534-4.12a4.752,4.752,0,0,0,.332-6.693L30.631,8.607a4.707,4.707,0,0,0-6.667-.334L12.232,18.934a4.752,4.752,0,0,0-.332,6.693l4.942,5.482a4.681,4.681,0,0,0,3.264,1.553q.12.006.24.006a4.675,4.675,0,0,0,3.162-1.226l4.535-4.121L41.684,42.455a1.789,1.789,0,0,0,1.332.593ZM21.1,28.769a1.078,1.078,0,0,1-.812.291,1.116,1.116,0,0,1-.78-.371l-4.942-5.482a1.136,1.136,0,0,1,.079-1.6L26.376,10.947a1.124,1.124,0,0,1,1.592.08L32.91,16.51a1.135,1.135,0,0,1-.079,1.6Z" transform="translate(-1.219 0)" fill="#707070"/>
    <path id="Path_87" data-name="Path 87" d="M7.69,55.7H32.055a1.873,1.873,0,0,0,0-3.747H7.69a1.873,1.873,0,1,0,0,3.747Z" transform="translate(0 -12.651)" fill="#707070"/>
  </g>
</svg>
