<svg xmlns="http://www.w3.org/2000/svg" width="40.367" height="36" viewBox="0 0 40.367 36">
  <path id="tachometer-average" d="M23.591,21.223A3.375,3.375,0,1,1,18.528,18.3V9.409a1.688,1.688,0,0,1,3.375,0V18.3A3.375,3.375,0,0,1,23.591,21.223Zm10.126-15.1A20.252,20.252,0,0,0,5.964,35.595a5.09,5.09,0,0,0,6.874.218l1.732-1.5a1.688,1.688,0,0,0-2.207-2.555l-1.733,1.5a1.688,1.688,0,0,1-2.29-.064,16.877,16.877,0,1,1,23.82-.062,1.718,1.718,0,0,1-2.354.125l-1.733-1.5a1.688,1.688,0,1,0-2.207,2.555l1.733,1.5a5.12,5.12,0,0,0,6.95-.294,20.348,20.348,0,0,0-.829-29.4Z" transform="translate(-0.052 -1.043)" fill="#707070"/>
</svg>
