<svg xmlns="http://www.w3.org/2000/svg" width="40.411" height="36" viewBox="0 0 40.411 36">
  <path id="tachometer-slowest" d="M34.442,35.57a5.08,5.08,0,0,1-6.865.216l-1.729-1.5a1.686,1.686,0,0,1,2.2-2.552l1.731,1.5a1.686,1.686,0,0,0,2.287-.062,16.856,16.856,0,1,0-23.79-.064,1.713,1.713,0,0,0,2.351.128l1.731-1.5a1.686,1.686,0,0,1,2.2,2.552l-1.731,1.5a5.117,5.117,0,0,1-6.943-.3A20.323,20.323,0,0,1,6.723,6.133C18.557-4.682,38.336,2.674,40.265,18.581A20.156,20.156,0,0,1,34.442,35.57ZM20.207,17.844a3.371,3.371,0,0,0-3.351,3l-8.2,3.6A1.686,1.686,0,1,0,10,27.533l8.2-3.6a3.359,3.359,0,1,0,2-6.088Z" transform="translate(-0.029 -1.016)" fill="#707070"/>
</svg>
