<svg xmlns="http://www.w3.org/2000/svg" width="40.401" height="36" viewBox="0 0 40.401 36">
  <path id="tachometer-fastest" d="M40.4,21.208A20.056,20.056,0,0,1,34.5,35.466a5.112,5.112,0,0,1-6.935.293l-1.727-1.493a1.684,1.684,0,0,1,2.2-2.549l1.729,1.495a1.707,1.707,0,0,0,2.348-.126,16.908,16.908,0,0,0-.7-24.431A16.826,16.826,0,0,0,8.355,33.15a1.683,1.683,0,0,0,2.283.064l1.729-1.5a1.684,1.684,0,1,1,2.2,2.549l-1.727,1.495a5.074,5.074,0,0,1-6.856-.219A20.2,20.2,0,1,1,40.4,21.208ZM30.387,27.518a1.683,1.683,0,1,0,1.347-3.084l-8.186-3.6A3.367,3.367,0,1,0,22.2,23.922Z" transform="translate(0 -0.989)" fill="#707070"/>
</svg>
