<svg id="logo" xmlns="http://www.w3.org/2000/svg" width="270.328" height="28.012" viewBox="0 0 270.328 28.012">
  <path id="Path_157" data-name="Path 157" d="M7.4,7.248V21.9c0,3.578-1.773,6.116-5.719,6.116A8.857,8.857,0,0,1,0,27.89l.122-3.822a3.719,3.719,0,0,0,.795.062c1.07,0,1.773-.7,1.773-2.233V7.248H7.4ZM2.355,2.692a2.692,2.692,0,0,1,5.384,0,2.692,2.692,0,0,1-5.384,0Z" transform="translate(0 0)"/>
  <path id="Path_158" data-name="Path 158" d="M68.329,42.25c4.374,0,7.553,3.211,7.553,8.227v1.01H65.362a3.525,3.525,0,0,0,3.762,2.63,5.842,5.842,0,0,0,3.609-1.254L74.72,55.8a9.639,9.639,0,0,1-6.177,1.957c-4.556,0-8.074-2.967-8.074-7.768a7.623,7.623,0,0,1,7.859-7.737ZM65.3,48.427h6.085a2.84,2.84,0,0,0-3.058-2.539A2.918,2.918,0,0,0,65.3,48.427Z" transform="translate(-50.623 -35.37)"/>
  <path id="Path_159" data-name="Path 159" d="M174.3,30.348V28.635a5.639,5.639,0,0,1-4.372,2.08c-3.64,0-6.545-2.752-6.545-7.768s2.843-7.737,6.545-7.737a5.483,5.483,0,0,1,4.372,2.11V9.95h4.679v20.4Zm0-9.663a3.853,3.853,0,0,0-2.843-1.316,3.246,3.246,0,0,0-3.242,3.578c0,2.2,1.376,3.609,3.242,3.609A3.876,3.876,0,0,0,174.3,25.21Z" transform="translate(-136.775 -8.33)" fill="#34d186"/>
  <path id="Path_160" data-name="Path 160" d="M274.36,49.987A7.615,7.615,0,0,1,282.4,42.25c5.016,0,8.074,3.578,8.074,7.737a8.064,8.064,0,0,1-16.117,0Zm11.283,0c0-1.957-1.163-3.578-3.242-3.578s-3.18,1.62-3.18,3.578,1.132,3.609,3.18,3.609S285.643,51.975,285.643,49.987Z" transform="translate(-229.682 -35.37)" fill="#34d186"/>
  <path id="Path_161" data-name="Path 161" d="M398.53,57.4V48.865a2.134,2.134,0,0,0-2.417-2.446,3.546,3.546,0,0,0-2.874,1.438V57.4H388.53V42.626h4.709v1.8a6.68,6.68,0,0,1,5.107-2.171c3.364,0,4.892,1.957,4.892,4.678V57.4h-4.709Z" transform="translate(-325.26 -35.378)" fill="#34d186"/>
  <path id="Path_162" data-name="Path 162" d="M509.88,57.4V48.865a2.134,2.134,0,0,0-2.417-2.446,3.546,3.546,0,0,0-2.874,1.438V57.4H499.88V42.626h4.709v1.8A6.68,6.68,0,0,1,509.7,42.26c3.364,0,4.892,1.957,4.892,4.678V57.4h-4.71Z" transform="translate(-418.478 -35.378)" fill="#34d186"/>
  <path id="Path_163" data-name="Path 163" d="M613.1,42.25c4.372,0,7.553,3.211,7.553,8.227v1.01h-10.52a3.525,3.525,0,0,0,3.762,2.63,5.845,5.845,0,0,0,3.609-1.254L619.49,55.8a9.639,9.639,0,0,1-6.177,1.957c-4.556,0-8.074-2.967-8.074-7.768a7.623,7.623,0,0,1,7.859-7.737Zm-3.027,6.177h6.085a2.84,2.84,0,0,0-3.058-2.539A2.918,2.918,0,0,0,610.071,48.427Z" transform="translate(-506.681 -35.37)" fill="#34d186"/>
  <path id="Path_164" data-name="Path 164" d="M732.764,57.4V48.406a1.779,1.779,0,0,0-1.957-1.988,3.415,3.415,0,0,0-2.661,1.438V57.4h-4.709V48.406a1.765,1.765,0,0,0-1.957-1.988,3.457,3.457,0,0,0-2.63,1.438V57.4H714.14V42.626h4.709v1.8a6.553,6.553,0,0,1,4.862-2.171c2.11,0,3.578.887,4.19,2.63a6.356,6.356,0,0,1,5.107-2.63c2.721,0,4.434,1.407,4.434,4.434V57.4h-4.679Z" transform="translate(-597.847 -35.378)"/>
  <path id="Path_165" data-name="Path 165" d="M872.46,49.987A7.616,7.616,0,0,1,880.5,42.25c5.016,0,8.074,3.578,8.074,7.737a8.064,8.064,0,0,1-16.117,0Zm11.283,0c0-1.957-1.163-3.578-3.242-3.578s-3.18,1.62-3.18,3.578,1.132,3.609,3.18,3.609S883.743,51.975,883.743,49.987Z" transform="translate(-730.386 -35.37)"/>
  <path id="Path_166" data-name="Path 166" d="M996.63,57.4V48.865a2.135,2.135,0,0,0-2.417-2.446,3.546,3.546,0,0,0-2.874,1.438V57.4H986.63V42.626h4.709v1.8a6.68,6.68,0,0,1,5.107-2.171c3.364,0,4.892,1.957,4.892,4.678V57.4h-4.71Z" transform="translate(-825.964 -35.378)"/>
  <path id="Path_167" data-name="Path 167" d="M1102.7,63.023h-4.709v-20.4h4.709V44.34a5.512,5.512,0,0,1,4.374-2.08c3.7,0,6.483,2.752,6.483,7.737s-2.783,7.768-6.483,7.768a5.487,5.487,0,0,1-4.374-2.11v7.37Zm2.814-16.605a3.764,3.764,0,0,0-2.814,1.345v4.5a3.868,3.868,0,0,0,2.814,1.345c1.835,0,3.242-1.376,3.242-3.609A3.246,3.246,0,0,0,1105.513,46.417Z" transform="translate(-919.19 -35.378)" fill="#34d186"/>
  <path id="Path_168" data-name="Path 168" d="M1208.78,57.4V42.626h4.71v1.866a6.438,6.438,0,0,1,4.618-2.233v4.556a3.83,3.83,0,0,0-1.163-.153,4.693,4.693,0,0,0-3.455,1.376V57.4Z" transform="translate(-1011.938 -35.378)" fill="#34d186"/>
  <path id="Path_169" data-name="Path 169" d="M1277.14,2.692a2.692,2.692,0,1,1,5.384,0,2.692,2.692,0,1,1-5.384,0Zm.337,19.326V7.248h4.709v14.77Z" transform="translate(-1069.166)" fill="#34d186"/>
  <path id="Path_170" data-name="Path 170" d="M1328.375,59.28l-2.844-4.465-2.874,4.465h-5.138l5.045-7.584-4.74-7.186h5.169l2.539,4.006,2.508-4.006h5.169L1328.5,51.7l5.047,7.584h-5.169Z" transform="translate(-1102.971 -37.262)" fill="#34d186"/>
  <path id="Path_171" data-name="Path 171" d="M1425.174,102.16a2.874,2.874,0,1,1-2.874,2.874A2.911,2.911,0,0,1,1425.174,102.16Z" transform="translate(-1190.688 -85.524)"/>
  <path id="Path_172" data-name="Path 172" d="M1477.684,42.233c3.18,0,5.168,1.407,6.054,2.721L1480.68,47.8a3.228,3.228,0,0,0-2.783-1.407,3.6,3.6,0,0,0,0,7.186,3.325,3.325,0,0,0,2.783-1.438l3.058,2.874a7.157,7.157,0,0,1-6.054,2.721c-4.618,0-8.074-3.12-8.074-7.768s3.456-7.737,8.074-7.737Z" transform="translate(-1230.294 -35.353)"/>
  <path id="Path_173" data-name="Path 173" d="M1579.719,30.348V21.755c0-1.8-.948-2.386-2.446-2.386a3.628,3.628,0,0,0-2.843,1.438v9.541h-4.709V9.95h4.709v7.431a6.679,6.679,0,0,1,5.107-2.171c3.364,0,4.894,1.9,4.894,4.618v10.52h-4.709Z" transform="translate(-1314.102 -8.33)"/>
</svg>
